<mxfile host="app.diagrams.net" modified="2021-05-23T07:06:30.413Z" agent="5.0 (Windows NT 10.0; Win64; x64) AppleWebKit/537.36 (KHTML, like Gecko) Chrome/90.0.4430.212 Safari/537.36" etag="VtmLufnrBcU8KOR7b8Us" version="14.6.13" type="github">
  <diagram id="XdC1j3IHL-RzZTJf8BNx" name="Page-1">
    <mxGraphModel dx="2062" dy="825" grid="1" gridSize="10" guides="1" tooltips="1" connect="1" arrows="1" fold="1" page="1" pageScale="1" pageWidth="1169" pageHeight="827" math="0" shadow="0">
      <root>
        <mxCell id="0" />
        <mxCell id="1" parent="0" />
        <mxCell id="VUR_f_dKXdpQ3Um3fJ8c-2" value="Deployment Diagram (OLD)" style="rounded=0;whiteSpace=wrap;html=1;dashed=1;spacing=20;verticalAlign=top;align=left;fontStyle=1" parent="1" vertex="1">
          <mxGeometry x="40" y="60" width="740" height="470" as="geometry" />
        </mxCell>
        <mxCell id="VUR_f_dKXdpQ3Um3fJ8c-25" value="&amp;lt;&amp;lt;device&amp;gt;&amp;gt;&lt;br&gt;&lt;b&gt;Database Server&lt;/b&gt;" style="verticalAlign=top;align=center;shape=cube;size=10;direction=south;fontStyle=0;html=1;boundedLbl=1;spacingLeft=5;fillColor=#FFFFFF;" parent="1" vertex="1">
          <mxGeometry x="585" y="120" width="165" height="170" as="geometry" />
        </mxCell>
        <mxCell id="VUR_f_dKXdpQ3Um3fJ8c-14" value="" style="group" parent="1" vertex="1" connectable="0">
          <mxGeometry x="70" y="330" width="270" height="170" as="geometry" />
        </mxCell>
        <mxCell id="VUR_f_dKXdpQ3Um3fJ8c-6" value="&amp;lt;&amp;lt;device&amp;gt;&amp;gt;&lt;br&gt;&lt;b&gt;Personal Computer&lt;/b&gt;" style="verticalAlign=top;align=center;shape=cube;size=10;direction=south;fontStyle=0;html=1;boundedLbl=1;spacingLeft=5;fillColor=#FFFFFF;" parent="VUR_f_dKXdpQ3Um3fJ8c-14" vertex="1">
          <mxGeometry width="270" height="170" as="geometry" />
        </mxCell>
        <mxCell id="VUR_f_dKXdpQ3Um3fJ8c-12" value="Web &#xa;Browser" style="shape=module;align=left;spacingLeft=20;align=center;verticalAlign=middle;fillColor=#FFFFFF;" parent="VUR_f_dKXdpQ3Um3fJ8c-14" vertex="1">
          <mxGeometry x="140" y="60" width="100" height="50" as="geometry" />
        </mxCell>
        <mxCell id="VUR_f_dKXdpQ3Um3fJ8c-13" value="Local&lt;br&gt;Storage" style="rounded=1;whiteSpace=wrap;html=1;fillColor=#FFFFFF;align=center;" parent="VUR_f_dKXdpQ3Um3fJ8c-14" vertex="1">
          <mxGeometry x="20" y="60" width="100" height="50" as="geometry" />
        </mxCell>
        <mxCell id="VUR_f_dKXdpQ3Um3fJ8c-11" style="edgeStyle=orthogonalEdgeStyle;rounded=0;orthogonalLoop=1;jettySize=auto;html=1;exitX=0.5;exitY=1;exitDx=0;exitDy=0;entryX=0.5;entryY=1;entryDx=0;entryDy=0;dashed=1;startArrow=classic;startFill=1;" parent="VUR_f_dKXdpQ3Um3fJ8c-14" source="VUR_f_dKXdpQ3Um3fJ8c-12" target="VUR_f_dKXdpQ3Um3fJ8c-13" edge="1">
          <mxGeometry relative="1" as="geometry">
            <Array as="points">
              <mxPoint x="190" y="140" />
              <mxPoint x="70" y="140" />
            </Array>
          </mxGeometry>
        </mxCell>
        <mxCell id="VUR_f_dKXdpQ3Um3fJ8c-15" value="" style="group" parent="1" vertex="1" connectable="0">
          <mxGeometry x="70" y="120" width="270" height="180" as="geometry" />
        </mxCell>
        <mxCell id="VUR_f_dKXdpQ3Um3fJ8c-4" value="&amp;lt;&amp;lt;device&amp;gt;&amp;gt;&lt;br&gt;&lt;b&gt;Mobile Phone&lt;/b&gt;" style="verticalAlign=top;align=center;shape=cube;size=10;direction=south;fontStyle=0;html=1;boundedLbl=1;spacingLeft=5;fillColor=#FFFFFF;" parent="VUR_f_dKXdpQ3Um3fJ8c-15" vertex="1">
          <mxGeometry width="270" height="180" as="geometry" />
        </mxCell>
        <mxCell id="VUR_f_dKXdpQ3Um3fJ8c-7" value="Client&#xa;Application" style="shape=module;align=left;spacingLeft=20;align=center;verticalAlign=middle;fillColor=#FFFFFF;" parent="VUR_f_dKXdpQ3Um3fJ8c-15" vertex="1">
          <mxGeometry x="140" y="70" width="100" height="50" as="geometry" />
        </mxCell>
        <mxCell id="VUR_f_dKXdpQ3Um3fJ8c-8" value="Local&lt;br&gt;Storage" style="rounded=1;whiteSpace=wrap;html=1;fillColor=#FFFFFF;align=center;" parent="VUR_f_dKXdpQ3Um3fJ8c-15" vertex="1">
          <mxGeometry x="20" y="70" width="100" height="50" as="geometry" />
        </mxCell>
        <mxCell id="VUR_f_dKXdpQ3Um3fJ8c-9" style="edgeStyle=orthogonalEdgeStyle;rounded=0;orthogonalLoop=1;jettySize=auto;html=1;exitX=0.5;exitY=1;exitDx=0;exitDy=0;entryX=0.5;entryY=1;entryDx=0;entryDy=0;dashed=1;startArrow=classic;startFill=1;" parent="VUR_f_dKXdpQ3Um3fJ8c-15" source="VUR_f_dKXdpQ3Um3fJ8c-7" target="VUR_f_dKXdpQ3Um3fJ8c-8" edge="1">
          <mxGeometry relative="1" as="geometry">
            <Array as="points">
              <mxPoint x="190" y="150" />
              <mxPoint x="70" y="150" />
            </Array>
          </mxGeometry>
        </mxCell>
        <mxCell id="VUR_f_dKXdpQ3Um3fJ8c-17" value="&amp;lt;&amp;lt;device&amp;gt;&amp;gt;&lt;br&gt;&lt;b&gt;Web Server&lt;/b&gt;" style="verticalAlign=top;align=center;shape=cube;size=10;direction=south;fontStyle=0;html=1;boundedLbl=1;spacingLeft=5;fillColor=#FFFFFF;" parent="1" vertex="1">
          <mxGeometry x="360" y="120" width="200" height="330" as="geometry" />
        </mxCell>
        <mxCell id="VUR_f_dKXdpQ3Um3fJ8c-26" style="edgeStyle=orthogonalEdgeStyle;rounded=0;orthogonalLoop=1;jettySize=auto;html=1;exitX=0.5;exitY=0;exitDx=0;exitDy=0;entryX=0.5;entryY=1;entryDx=0;entryDy=0;dashed=1;startArrow=classic;startFill=1;" parent="1" source="VUR_f_dKXdpQ3Um3fJ8c-18" target="VUR_f_dKXdpQ3Um3fJ8c-23" edge="1">
          <mxGeometry relative="1" as="geometry">
            <Array as="points">
              <mxPoint x="450" y="320" />
              <mxPoint x="450" y="320" />
            </Array>
          </mxGeometry>
        </mxCell>
        <mxCell id="VUR_f_dKXdpQ3Um3fJ8c-18" value="Web &#xa;Application" style="shape=module;align=left;spacingLeft=20;align=center;verticalAlign=middle;fillColor=#FFFFFF;" parent="1" vertex="1">
          <mxGeometry x="400" y="340" width="100" height="50" as="geometry" />
        </mxCell>
        <mxCell id="VUR_f_dKXdpQ3Um3fJ8c-28" style="edgeStyle=orthogonalEdgeStyle;rounded=0;orthogonalLoop=1;jettySize=auto;html=1;exitX=1;exitY=0.5;exitDx=0;exitDy=0;entryX=0.5;entryY=1;entryDx=0;entryDy=0;dashed=1;startArrow=classic;startFill=1;" parent="1" source="VUR_f_dKXdpQ3Um3fJ8c-23" target="VUR_f_dKXdpQ3Um3fJ8c-27" edge="1">
          <mxGeometry relative="1" as="geometry" />
        </mxCell>
        <mxCell id="VUR_f_dKXdpQ3Um3fJ8c-23" value="API" style="shape=module;align=left;spacingLeft=20;align=center;verticalAlign=middle;fillColor=#FFFFFF;" parent="1" vertex="1">
          <mxGeometry x="400" y="235" width="100" height="50" as="geometry" />
        </mxCell>
        <mxCell id="VUR_f_dKXdpQ3Um3fJ8c-27" value="PostgreSql&#xa;Database" style="shape=module;align=left;spacingLeft=20;align=center;verticalAlign=middle;fillColor=#FFFFFF;" parent="1" vertex="1">
          <mxGeometry x="610" y="185" width="100" height="50" as="geometry" />
        </mxCell>
        <mxCell id="VUR_f_dKXdpQ3Um3fJ8c-32" style="edgeStyle=orthogonalEdgeStyle;rounded=0;orthogonalLoop=1;jettySize=auto;html=1;exitX=1;exitY=0.5;exitDx=0;exitDy=0;entryX=0.5;entryY=1;entryDx=0;entryDy=0;dashed=1;startArrow=classic;startFill=1;" parent="1" source="VUR_f_dKXdpQ3Um3fJ8c-12" target="VUR_f_dKXdpQ3Um3fJ8c-18" edge="1">
          <mxGeometry relative="1" as="geometry">
            <Array as="points">
              <mxPoint x="450" y="415" />
            </Array>
          </mxGeometry>
        </mxCell>
        <mxCell id="VUR_f_dKXdpQ3Um3fJ8c-33" style="edgeStyle=orthogonalEdgeStyle;rounded=0;orthogonalLoop=1;jettySize=auto;html=1;exitX=1;exitY=0.5;exitDx=0;exitDy=0;entryX=0.5;entryY=0;entryDx=0;entryDy=0;dashed=1;startArrow=classic;startFill=1;" parent="1" source="VUR_f_dKXdpQ3Um3fJ8c-7" target="VUR_f_dKXdpQ3Um3fJ8c-23" edge="1">
          <mxGeometry relative="1" as="geometry" />
        </mxCell>
        <mxCell id="cXEcaTY2lwT7MXvua-dQ-1" value="VIEWS&lt;br&gt;&lt;br&gt;1. Logical View&lt;br&gt;- State Diagram&lt;br&gt;- Class Diagram&lt;br&gt;2. Development View&lt;br&gt;- Component Diagram&lt;br&gt;3. Process View&lt;br&gt;- Activity Diagram&lt;br&gt;- Sequence Diagram&lt;br&gt;4. Physical View&lt;br&gt;- Deployment Diagram" style="rounded=0;whiteSpace=wrap;html=1;align=left;spacing=20;" vertex="1" parent="1">
          <mxGeometry x="820" y="60" width="370" height="350" as="geometry" />
        </mxCell>
        <mxCell id="cXEcaTY2lwT7MXvua-dQ-2" value="Deployment Diagram" style="rounded=0;whiteSpace=wrap;html=1;dashed=1;spacing=20;verticalAlign=top;align=left;fontStyle=1" vertex="1" parent="1">
          <mxGeometry x="40" y="600" width="740" height="470" as="geometry" />
        </mxCell>
        <mxCell id="cXEcaTY2lwT7MXvua-dQ-3" value="&amp;lt;&amp;lt;device&amp;gt;&amp;gt;&lt;br&gt;&lt;b&gt;Database and &lt;br&gt;Authentication Server&lt;/b&gt;" style="verticalAlign=top;align=center;shape=cube;size=10;direction=south;fontStyle=0;html=1;boundedLbl=1;spacingLeft=5;fillColor=#FFFFFF;" vertex="1" parent="1">
          <mxGeometry x="585" y="660" width="165" height="170" as="geometry" />
        </mxCell>
        <mxCell id="cXEcaTY2lwT7MXvua-dQ-4" value="" style="group" vertex="1" connectable="0" parent="1">
          <mxGeometry x="70" y="870" width="270" height="170" as="geometry" />
        </mxCell>
        <mxCell id="cXEcaTY2lwT7MXvua-dQ-5" value="&amp;lt;&amp;lt;device&amp;gt;&amp;gt;&lt;br&gt;&lt;b&gt;Personal Computer&lt;/b&gt;" style="verticalAlign=top;align=center;shape=cube;size=10;direction=south;fontStyle=0;html=1;boundedLbl=1;spacingLeft=5;fillColor=#FFFFFF;" vertex="1" parent="cXEcaTY2lwT7MXvua-dQ-4">
          <mxGeometry width="270" height="170" as="geometry" />
        </mxCell>
        <mxCell id="cXEcaTY2lwT7MXvua-dQ-6" value="Web &#xa;Browser" style="shape=module;align=left;spacingLeft=20;align=center;verticalAlign=middle;fillColor=#FFFFFF;" vertex="1" parent="cXEcaTY2lwT7MXvua-dQ-4">
          <mxGeometry x="140" y="60" width="100" height="50" as="geometry" />
        </mxCell>
        <mxCell id="cXEcaTY2lwT7MXvua-dQ-7" value="Local&lt;br&gt;Storage" style="rounded=1;whiteSpace=wrap;html=1;fillColor=#FFFFFF;align=center;" vertex="1" parent="cXEcaTY2lwT7MXvua-dQ-4">
          <mxGeometry x="20" y="60" width="100" height="50" as="geometry" />
        </mxCell>
        <mxCell id="cXEcaTY2lwT7MXvua-dQ-8" style="edgeStyle=orthogonalEdgeStyle;rounded=0;orthogonalLoop=1;jettySize=auto;html=1;exitX=0.5;exitY=1;exitDx=0;exitDy=0;entryX=0.5;entryY=1;entryDx=0;entryDy=0;dashed=1;startArrow=classic;startFill=1;" edge="1" parent="cXEcaTY2lwT7MXvua-dQ-4" source="cXEcaTY2lwT7MXvua-dQ-6" target="cXEcaTY2lwT7MXvua-dQ-7">
          <mxGeometry relative="1" as="geometry">
            <Array as="points">
              <mxPoint x="190" y="140" />
              <mxPoint x="70" y="140" />
            </Array>
          </mxGeometry>
        </mxCell>
        <mxCell id="cXEcaTY2lwT7MXvua-dQ-9" value="" style="group" vertex="1" connectable="0" parent="1">
          <mxGeometry x="70" y="660" width="270" height="180" as="geometry" />
        </mxCell>
        <mxCell id="cXEcaTY2lwT7MXvua-dQ-10" value="&amp;lt;&amp;lt;device&amp;gt;&amp;gt;&lt;br&gt;&lt;b&gt;Mobile Phone&lt;/b&gt;" style="verticalAlign=top;align=center;shape=cube;size=10;direction=south;fontStyle=0;html=1;boundedLbl=1;spacingLeft=5;fillColor=#FFFFFF;" vertex="1" parent="cXEcaTY2lwT7MXvua-dQ-9">
          <mxGeometry width="270" height="180" as="geometry" />
        </mxCell>
        <mxCell id="cXEcaTY2lwT7MXvua-dQ-11" value="Client&#xa;Application" style="shape=module;align=left;spacingLeft=20;align=center;verticalAlign=middle;fillColor=#FFFFFF;" vertex="1" parent="cXEcaTY2lwT7MXvua-dQ-9">
          <mxGeometry x="140" y="70" width="100" height="50" as="geometry" />
        </mxCell>
        <mxCell id="cXEcaTY2lwT7MXvua-dQ-12" value="Local&lt;br&gt;Storage" style="rounded=1;whiteSpace=wrap;html=1;fillColor=#FFFFFF;align=center;" vertex="1" parent="cXEcaTY2lwT7MXvua-dQ-9">
          <mxGeometry x="20" y="70" width="100" height="50" as="geometry" />
        </mxCell>
        <mxCell id="cXEcaTY2lwT7MXvua-dQ-13" style="edgeStyle=orthogonalEdgeStyle;rounded=0;orthogonalLoop=1;jettySize=auto;html=1;exitX=0.5;exitY=1;exitDx=0;exitDy=0;entryX=0.5;entryY=1;entryDx=0;entryDy=0;dashed=1;startArrow=classic;startFill=1;" edge="1" parent="cXEcaTY2lwT7MXvua-dQ-9" source="cXEcaTY2lwT7MXvua-dQ-11" target="cXEcaTY2lwT7MXvua-dQ-12">
          <mxGeometry relative="1" as="geometry">
            <Array as="points">
              <mxPoint x="190" y="150" />
              <mxPoint x="70" y="150" />
            </Array>
          </mxGeometry>
        </mxCell>
        <mxCell id="cXEcaTY2lwT7MXvua-dQ-14" value="&amp;lt;&amp;lt;device&amp;gt;&amp;gt;&lt;br&gt;&lt;b&gt;Web Server&lt;/b&gt;" style="verticalAlign=top;align=center;shape=cube;size=10;direction=south;fontStyle=0;html=1;boundedLbl=1;spacingLeft=5;fillColor=#FFFFFF;" vertex="1" parent="1">
          <mxGeometry x="360" y="660" width="200" height="330" as="geometry" />
        </mxCell>
        <mxCell id="cXEcaTY2lwT7MXvua-dQ-16" value="Web &#xa;Application" style="shape=module;align=left;spacingLeft=20;align=center;verticalAlign=middle;fillColor=#FFFFFF;" vertex="1" parent="1">
          <mxGeometry x="400" y="827" width="100" height="50" as="geometry" />
        </mxCell>
        <mxCell id="cXEcaTY2lwT7MXvua-dQ-17" style="edgeStyle=orthogonalEdgeStyle;rounded=0;orthogonalLoop=1;jettySize=auto;html=1;exitX=1;exitY=0.5;exitDx=0;exitDy=0;entryX=0.5;entryY=1;entryDx=0;entryDy=0;dashed=1;startArrow=classic;startFill=1;" edge="1" parent="1" source="cXEcaTY2lwT7MXvua-dQ-16" target="cXEcaTY2lwT7MXvua-dQ-19">
          <mxGeometry relative="1" as="geometry">
            <mxPoint x="500" y="800" as="sourcePoint" />
          </mxGeometry>
        </mxCell>
        <mxCell id="cXEcaTY2lwT7MXvua-dQ-19" value="Firebase" style="shape=module;align=left;spacingLeft=20;align=center;verticalAlign=middle;fillColor=#FFFFFF;" vertex="1" parent="1">
          <mxGeometry x="610" y="750" width="100" height="50" as="geometry" />
        </mxCell>
        <mxCell id="cXEcaTY2lwT7MXvua-dQ-20" style="edgeStyle=orthogonalEdgeStyle;rounded=0;orthogonalLoop=1;jettySize=auto;html=1;exitX=1;exitY=0.5;exitDx=0;exitDy=0;entryX=0.5;entryY=1;entryDx=0;entryDy=0;dashed=1;startArrow=classic;startFill=1;" edge="1" parent="1" source="cXEcaTY2lwT7MXvua-dQ-6" target="cXEcaTY2lwT7MXvua-dQ-16">
          <mxGeometry relative="1" as="geometry">
            <Array as="points">
              <mxPoint x="450" y="955" />
            </Array>
          </mxGeometry>
        </mxCell>
        <mxCell id="cXEcaTY2lwT7MXvua-dQ-21" style="edgeStyle=orthogonalEdgeStyle;rounded=0;orthogonalLoop=1;jettySize=auto;html=1;exitX=1;exitY=0.5;exitDx=0;exitDy=0;entryX=0.5;entryY=0;entryDx=0;entryDy=0;dashed=1;startArrow=classic;startFill=1;" edge="1" parent="1" source="cXEcaTY2lwT7MXvua-dQ-11" target="cXEcaTY2lwT7MXvua-dQ-16">
          <mxGeometry relative="1" as="geometry">
            <mxPoint x="450" y="775" as="targetPoint" />
          </mxGeometry>
        </mxCell>
      </root>
    </mxGraphModel>
  </diagram>
</mxfile>
